<svg viewBox="0 0 920 512" xmlns="http://www.w3.org/2000/svg" font-family="'Inter',-apple-system,'Segoe UI',Helvetica,Arial,sans-serif">
  <defs>
    <linearGradient id="thHero" x1="0" y1="0" x2="1" y2="0">
      <stop offset="0" stop-color="#4C1D95"/>
      <stop offset="1" stop-color="#7C3AED"/>
    </linearGradient>
  </defs>
  <rect x="1" y="1" width="918" height="510" rx="16" fill="#ffffff" stroke="#e7e3ee"/>
  <rect x="1" y="1" width="918" height="6" rx="3" fill="url(#thHero)"/>

  <text x="36" y="50" font-size="12" font-weight="700" letter-spacing="1.5" fill="#4C1D95">FOUNDATION · THEMING</text>
  <text x="36" y="88" font-size="30" font-weight="700" fill="#141019">One system, many brands</text>
  <text x="36" y="114" font-size="13" fill="#7a7484">Components read roles, not raw values — so a new brand is a base-palette swap, not a rebuild.</text>

  <!-- ===== Theme A: Cosmic (default) ===== -->
  <g>
    <rect x="36" y="150" width="386" height="252" rx="14" fill="#faf9fc" stroke="#e7e3ee"/>
    <text x="56" y="180" font-size="11" font-weight="700" letter-spacing="0.8" fill="#4a4553">DEFAULT · IN-HOUSE</text>

    <!-- mini app -->
    <rect x="56" y="196" width="346" height="120" rx="10" fill="#ffffff" stroke="#e7e3ee"/>
    <rect x="56" y="196" width="40" height="120" rx="10" fill="#633EA5"/>
    <rect x="88" y="196" width="8" height="120" fill="#633EA5"/>
    <circle cx="76" cy="216" r="7" fill="#ffffff" opacity="0.9"/>
    <rect x="68" y="240" width="16" height="6" rx="3" fill="#ffffff" opacity="0.5"/>
    <rect x="68" y="256" width="16" height="6" rx="3" fill="#ffffff" opacity="0.5"/>
    <!-- content -->
    <rect x="116" y="214" width="150" height="9" rx="4" fill="#e7e3ee"/>
    <rect x="116" y="230" width="110" height="9" rx="4" fill="#eceaf1"/>
    <rect x="116" y="266" width="96" height="30" rx="7" fill="#633EA5"/>
    <text x="164" y="286" text-anchor="middle" font-size="12" font-weight="600" fill="#ffffff">Primary</text>
    <rect x="224" y="270" width="66" height="22" rx="11" fill="#FCD34D"/>
    <text x="257" y="285" text-anchor="middle" font-size="10.5" font-weight="700" fill="#5c4a00">Accent</text>

    <!-- role swatches -->
    <g>
      <rect x="56"  y="340" width="16" height="16" rx="4" fill="#633EA5"/>
      <text x="80" y="352" font-size="12" fill="#4a4553">Primary</text>
      <rect x="168" y="340" width="16" height="16" rx="4" fill="#FCD34D"/>
      <text x="192" y="352" font-size="12" fill="#4a4553">Secondary</text>
      <rect x="300" y="340" width="16" height="16" rx="4" fill="#141019"/>
      <text x="324" y="352" font-size="12" fill="#4a4553">Neutral</text>
    </g>
    <text x="56" y="382" font-size="11.5" fill="#7a7484">Purple identity, yellow accent, near-black neutral.</text>
  </g>

  <!-- ===== swap badge ===== -->
  <circle cx="460" cy="276" r="28" fill="#ffffff" stroke="#4C1D95" stroke-width="1.5"/>
  <g stroke="#4C1D95" stroke-width="2" fill="none" stroke-linecap="round" stroke-linejoin="round">
    <path d="M450 270 h18 l-4 -4 M470 282 h-18 l4 4"/>
  </g>
  <text x="460" y="326" text-anchor="middle" font-size="10.5" font-weight="700" letter-spacing="0.5" fill="#4C1D95">SWAP BASE</text>

  <!-- ===== Theme B: white-label client (unnamed) ===== -->
  <g>
    <rect x="498" y="150" width="386" height="252" rx="14" fill="#f7f9fc" stroke="#e7e3ee"/>
    <text x="518" y="180" font-size="11" font-weight="700" letter-spacing="0.8" fill="#4a4553">WHITE-LABEL · CLIENT BRAND</text>

    <!-- mini app (identical layout) -->
    <rect x="518" y="196" width="346" height="120" rx="10" fill="#ffffff" stroke="#e7e3ee"/>
    <rect x="518" y="196" width="40" height="120" rx="10" fill="#1E4FB8"/>
    <rect x="550" y="196" width="8" height="120" fill="#1E4FB8"/>
    <circle cx="538" cy="216" r="7" fill="#ffffff" opacity="0.9"/>
    <rect x="530" y="240" width="16" height="6" rx="3" fill="#ffffff" opacity="0.5"/>
    <rect x="530" y="256" width="16" height="6" rx="3" fill="#ffffff" opacity="0.5"/>
    <!-- content -->
    <rect x="578" y="214" width="150" height="9" rx="4" fill="#e5e9f0"/>
    <rect x="578" y="230" width="110" height="9" rx="4" fill="#eef1f6"/>
    <rect x="578" y="266" width="96" height="30" rx="7" fill="#1E4FB8"/>
    <text x="626" y="286" text-anchor="middle" font-size="12" font-weight="600" fill="#ffffff">Primary</text>
    <rect x="686" y="270" width="66" height="22" rx="11" fill="#0D9488"/>
    <text x="719" y="285" text-anchor="middle" font-size="10.5" font-weight="700" fill="#ffffff">Accent</text>

    <!-- role swatches -->
    <g>
      <rect x="518" y="340" width="16" height="16" rx="4" fill="#1E4FB8"/>
      <text x="542" y="352" font-size="12" fill="#4a4553">Primary</text>
      <rect x="630" y="340" width="16" height="16" rx="4" fill="#0D9488"/>
      <text x="654" y="352" font-size="12" fill="#4a4553">Secondary</text>
      <rect x="762" y="340" width="16" height="16" rx="4" fill="#334155"/>
      <text x="786" y="352" font-size="12" fill="#4a4553">Neutral</text>
    </g>
    <text x="518" y="382" font-size="11.5" fill="#7a7484">High-contrast blue &amp; teal for a financial client.</text>
  </g>

  <line x1="36" y1="424" x2="884" y2="424" stroke="#e7e3ee"/>
  <text x="36" y="454" font-size="12.5" fill="#4a4553">Same components, same roles — only the base palette changes. That's what turns an in-house</text>
  <text x="36" y="474" font-size="12.5" fill="#4a4553">system into a white-label foundation we can shape to each client we work with.</text>
</svg>
